<?xml version="1.0" encoding="UTF-8"?>
<svg id="Layer_2" data-name="Layer 2" xmlns="http://www.w3.org/2000/svg" viewBox="0 0 920.51 906.96">
  <defs>
    <style>
      .cls-1 {
        fill: #c6a15a;
      }
    </style>
  </defs>
  <g id="Capa_1" data-name="Capa 1">
    <g>
      <path class="cls-1" d="m59.27,515.55V0h-27.7v516.56c5.16-1.4,10.56-2.14,16.06-2.14,3.92,0,7.83.39,11.64,1.13Z"/>
      <path class="cls-1" d="m18.16,571.4c17.57-23.87,47.03-.69,61.21,13.79,14.73,15.04,23.26,37.4,30.23,56.91,4.51,12.62,12.78,22.69,19.44,34.07,2.46,4.21,17.95,13.72,14.85,1.76-2.58-9.97-23.14-151.83,52.87-168.39,13.96-3.04,63.34-2.64,58.09,23.38-1.28,6.34-14.54,16.78-4.05,21.73,8.7,4.1,23.86-6.78,28.31-13.69,11.82-18.38-2.21-49.52-18.98-59.86-11.52-7.1-21.09-9.32-34.27-10.27-13.08-.94-5.53-14.63-10.84-21.64-13.2-17.43-45.71,13.28-67.74,39.05-8.67,10.14-9.31-8.55-12.08-13.63-8.36-15.32-18.96,2.42-24.2,10.36-5.66,8.58-7.42,47.29-11.19,56.48-5.25,12.78-19.27-3.34-24.47-7.05-17.35-12.4-42.44-11.37-58.61,2.35-7.7,6.53-15.81,17.22-16.67,27.68-1.04,12.69,10.4,17.42,18.09,6.97Z"/>
      <path class="cls-1" d="m400.98,846.64c1.85,9.06,1.28,18.43-1.69,27.7h521.22v-27.7H400.98Z"/>
      <path class="cls-1" d="m368.64,813.3c1.19-11.5,24.55,7.15,54.38-14.05,13.42-9.53,19.48-12.06,24.35-19.23,8.81-12.97-16.53-11.87-20.32-16.07-6.4-7.08,11.53-14.59,15.1-16.73,21.15-12.68,31.82-33.32,16.13-55.62-5.93-8.42-17.23-7.54-16.8-20.67.34-10.3-5.16-19.48-11.93-26.8-14.29-15.45-40.57-26.63-60.03-12.97-6.12,4.29-16.09,17.26-11.98,25.39,4.56,9.03,12.46.3,18.2-1.43,25.16-7.57,37.81,31.41,30.59,49.48-6.19,15.49-14.05,36.11-28.7,46.52-27.95,19.85-80.64,34.31-138.08,15.87-5.6-1.8-23.11-6.2-11.11,4.56,9.38,8.4,21.56,14.02,32.56,19.84,9.9,5.24,20.1,10.84,30.42,15.19,8.4,3.55,17.51,9.89,26.19,12.12,17.7,4.56,46.4,39.03,37.65,57.7-3.14,6.7-19.3,15.19-16.38,22.86,3.3,8.67,15.49,9.35,22.25,5.3,20.35-12.2,35.83-37.51,27.16-61.56-3.29-9.12-20.56-20.53-19.62-29.71Z"/>
      <path class="cls-1" d="m240.2,866.77c-6.07-1.45-19.8,7.05-32.85,3.47-12.18-3.34-51.2-30.36-49.21-81.88,0-.25,0-.46,0-.66,0,.21,0,.42,0,.64,0-3.9.91-43.37-12.05-30.94-5.66,5.43-3.54,16.86-15.18,15.52-12.48-1.43-7.74-13.15-12.59-20.29-5.68-8.37-47.55,17.84-84.17-50.09-5.28-9.79,3.92-17.06,1.23-26.43-3.87-13.45-15.46-.6-19.11,5.19-6.38,10.12-4.68,23.04.16,33.36,3.31,7.05,18.2,22.45,14.61,30.24-12.02,26.11,20.82,26.44,37.34,34.05,11.28,5.19,25.53-5.41,33.98-.48,13.93,8.13-9.38,11.82-12.76,12.38-13.38,2.22-64.83,15.88-50.84,37.31,11.9,18.22.07,20.35-6.19,36.2-6.01,15.21,13.36,10.51,19.88,7.09,8.92-4.68,12.76-10.54,21.88-1.93,18.77,17.73,37.34-27.8,40.5-35.53,1.95-4.79.81-25.62,9.57-25.4,8.63.22,5.14,25.64,5.14,30.31,0,12.18,2.67,21.7,11.12,31,5.52,6.08,11.1,10.73,19.26,6.47,4.97-2.59,9.7-2,14.39,1.39,16.52,11.93,45.09,14.85,57.7,10.89,7.01-2.2,23.05-18.32,8.17-21.88Zm-82.06-79.31v-.55.55Z"/>
      <path class="cls-1" d="m313.09,719.47c-18.87-17.79-23.02-47.02-31.8-69.6-11.93-30.67-49.92-23.38-75.08-36.5-12.15-6.34-27.35-18.02-27.32-33.05.01-7.11-1.4-34.53-14.39-18.93-21.08,25.33.69,61,24.3,76.03,6.31,4.02,34.65,6.64,29.46,19.33-3.35,8.19-18.67,17.42-13.98,27.88,4.57,10.2,18.4,24.3,31.03,18.35,9.24-4.35,28.31-21.64,32.11-1.75,7.27,38.07,56.48,46.56,60.1,46.56,8.7-.64,17.13,1.04,24.37-5.17,4.2-3.6,7.99-11.42.55-14.37-5.23-2.07-21.52,8-39.35-8.8Z"/>
      <path class="cls-1" d="m340.4,865.14c9.01-23.14-68.5-38.43-107.18-70.26-64.96-53.45-41.42-136.43-49.42-144.81-7.39-7.74-16.45-12.1-22.1-.33-4.69,9.78-16.08,112.65,70.59,176.17,31.5,23.09,101.21,56.97,108.11,39.23Z"/>
      <path class="cls-1" d="m240.96,572.9c-31.63,9.13-33.3,25.89-24.28,28.91,17.13,5.73,32.55-7.92,49.38-3.9,10.24,2.45,10.39,12.88,14.57,20.65,5.43,10.08,10.3,9.3,20.01,12.56,22.28,7.49,10.8,33.53,9.23,49.77-.03.22-.06.58-.1,1.14.01.19.03.35.04.49,2.44,30.46,19.78,14.74,26.5-5.69,5.91-17.99,7.01-36.91-.01-54.92-14.32-36.71-55.67-60.46-95.34-49.01Z"/>
      <path class="cls-1" d="m77.61,676.23c12.46,14.02,26.58,26.55,41.08,37.75,6.81,5.26,14.33,18.32,24.92,14.27,8.02-3.06,3.85-13.42,1.54-18.91-5.42-12.85-23.71-21.8-33.63-31.6-35.68-35.25-38.05-75.08-46.91-89.66-5.53-9.1-26.94-19.16-26.6-1.34-.73,15.94,11.8,58.21,39.6,89.49Z"/>
      <path class="cls-1" d="m38.01,586.74c-.05-2.56-.16,3.39,0,0h0Z"/>
      <path class="cls-1" d="m243.13,723.89c-8.1,0-30.4-.55-24.18,14.74,10.61,26.1,57.69,8.42,50.95-3.98-6.06-11.16-15.75-9.92-26.78-10.76Z"/>
    </g>
  </g>
</svg>