<?xml version="1.0" encoding="UTF-8"?>
<svg id="Layer_2" data-name="Layer 2" xmlns="http://www.w3.org/2000/svg" viewBox="0 0 451.03 142.3">
  <defs>
    <style>
      .cls-1 {
        fill: #f4efe8;
      }
    </style>
  </defs>
  <g id="Layer_1-2" data-name="Layer 1">
    <path class="cls-1" d="m372.48,142.3H78.55V54c33.53,0,73.34-8.61,102.59-25C196.81,20.22,225.52,0,225.52,0c0,0,29.35,20.49,44.52,29,29.2,16.38,68.96,25,102.44,25v88.3Z"/>
    <path class="cls-1" d="m78.55,54.03v88.26H.6c-.4-3.17-.6-6.43-.6-9.71,0-21.7,8.79-41.33,23-55.53s33.86-23.02,55.56-23.02Z"/>
    <path class="cls-1" d="m372.48,54.03v88.26h77.96c.4-3.17.6-6.43.6-9.71,0-21.7-8.79-41.33-23-55.53-14.22-14.22-33.86-23.02-55.56-23.02Z"/>
  </g>
</svg>